<?xml version="1.0" standalone="no"?>
<!DOCTYPE svg PUBLIC "-//W3C//DTD SVG 20010904//EN"
 "http://www.w3.org/TR/2001/REC-SVG-20010904/DTD/svg10.dtd">
<svg version="1.0" xmlns="http://www.w3.org/2000/svg"
 width="46.000000pt" height="46.000000pt" viewBox="0 0 46.000000 46.000000"
 preserveAspectRatio="xMidYMid meet">

<g transform="translate(0.000000,46.000000) scale(0.100000,-0.100000)"
fill="#000000" stroke="none">
<path d="M235 430 c-4 -6 -23 -9 -43 -8 -22 1 -37 -3 -40 -11 -2 -7 -18 -28
-35 -47 -27 -31 -29 -37 -17 -59 7 -13 10 -31 7 -39 -8 -20 2 -46 16 -46 6 0
23 -11 37 -25 24 -23 32 -25 84 -19 44 5 59 12 68 28 5 12 19 28 30 37 17 13
19 22 11 74 -6 44 -13 62 -28 70 -11 5 -30 20 -43 33 -24 24 -37 28 -47 12z
m53 -55 c16 -14 33 -36 36 -50 10 -39 -18 -92 -57 -111 -99 -47 -186 79 -108
157 38 38 87 39 129 4z"/>
<path d="M193 380 c-35 -14 -56 -55 -49 -95 8 -42 39 -65 87 -65 86 0 109 117
32 158 -25 14 -40 14 -70 2z m87 -48 c0 -4 -15 -23 -33 -40 -33 -32 -33 -32
-52 -12 -20 22 -14 40 8 22 11 -9 19 -6 37 13 24 25 40 32 40 17z"/>
<path d="M320 159 c-8 -5 -27 -13 -42 -19 l-27 -9 22 -53 21 -52 10 32 c10 35
17 38 48 21 30 -16 32 -5 6 44 -18 34 -26 43 -38 36z"/>
<path d="M107 125 c-23 -47 -22 -58 2 -45 30 15 40 12 47 -15 8 -33 20 -32 32
3 5 15 13 34 17 43 4 12 -1 19 -22 27 -15 5 -35 13 -44 16 -10 5 -20 -4 -32
-29z"/>
</g>
</svg>
